<svg xmlns="http://www.w3.org/2000/svg" width="60" height="60" viewBox="0 0 60 60">
  <path d="m29.99401,48c-7.3,0 -12.2,-0.022 -15.33,-3.331c-2.9,-3.063 -2.866,-7.835 -2.865,-14.669l0,0c0,-6.834 -0.033,-11.606 2.866,-14.669c3.13,-3.309 8.031,-3.331 15.33,-3.331s12.2,0.022 15.331,3.331c2.9,3.063 2.867,7.835 2.866,14.669s0.033,11.606 -2.866,14.669c-3.132,3.309 -8.033,3.331 -15.332,3.331zm13.112,-29.976c-1.919,-3.024 -6.8,-2.843 -13.11,-2.835c-6.306,-0.008 -11.191,-0.19 -13.111,2.835s-1.794,5.65 -1.792,11.976l0,0c0,6.326 -0.136,8.941 1.791,11.976s6.8,2.843 13.109,2.835c6.306,0.008 11.191,0.189 13.111,-2.835s1.794,-5.65 1.792,-11.976l0,0c0.002,-6.326 0.136,-8.941 -1.79,-11.976zm-3.473,4.606a2.162,2.162 0 1 1 2.185,-2.161a2.173,2.173 0 0 1 -2.186,2.161l0.001,0zm-9.637,16.583a9.213,9.213 0 1 1 9.31,-9.213a9.264,9.264 0 0 1 -9.311,9.213l0.001,0zm0,-15.165a5.953,5.953 0 1 0 6.018,5.952a5.985,5.985 0 0 0 -6.019,-5.953l0.001,0.001z" style="fill-rule: evenodd" />
</svg>
