<svg xmlns="http://www.w3.org/2000/svg" width="57" height="38" viewBox="0 0 57 38">
  <path class="cls-1" d="M192.41,65.926a2.626,2.626,0,0,1-2.591-2.66V59.974a2.592,2.592,0,1,1,5.182,0v3.293A2.626,2.626,0,0,1,192.41,65.926ZM182.045,69.6a2.626,2.626,0,0,1-2.591-2.66V65.42a2.592,2.592,0,1,0-5.182,0v6.46a2.592,2.592,0,1,1-5.182,0V70.486a2.592,2.592,0,1,0-5.182,0v7.853a2.592,2.592,0,1,1-5.182,0V68.967a2.592,2.592,0,1,0-5.182,0V69.6a2.592,2.592,0,1,1-5.182,0V57.06a2.592,2.592,0,1,1,5.182,0v0.253a2.592,2.592,0,1,0,5.182,0V52.121a2.592,2.592,0,1,1,5.182,0v1.393a2.592,2.592,0,1,0,5.182,0V45.661a2.592,2.592,0,1,1,5.182,0V56.3a2.592,2.592,0,1,0,5.182,0V54.4a2.592,2.592,0,1,1,5.182,0V66.94A2.626,2.626,0,0,1,182.045,69.6Zm-41.456-2.913A2.626,2.626,0,0,1,138,64.027V60.734a2.592,2.592,0,1,1,5.182,0v3.293A2.626,2.626,0,0,1,140.589,66.686Z" transform="translate(-138 -43)" style="fill-rule: evenodd" />
</svg>
