<svg xmlns="http://www.w3.org/2000/svg" width="22" height="22" viewBox="0 0 22 22">
  <path d="M245.314,96.682h-1.806v8.647a0.824,0.824,0,0,1-.885.744l-3.974.071a0.461,0.461,0,0,1-.472-0.448v-7.5a0.479,0.479,0,0,0-.518-0.428H234.2a0.494,0.494,0,0,0-.541.428l-0.179,7.5a0.459,0.459,0,0,1-.47.448l-3.662-.071a0.824,0.824,0,0,1-.885-0.744V96.682h-2.248a0.838,0.838,0,0,1,0-1.312L235,87.825a1.21,1.21,0,0,1,1.528,0l4.325,3.714V88.212h2.655v5.608l1.806,1.551A0.838,0.838,0,0,1,245.314,96.682Z" transform="translate(-224.766 -85.844)" style="fill-rule: evenodd" />
</svg>
