<svg xmlns="http://www.w3.org/2000/svg" width="60" height="60" viewBox="0 0 60 60">
  <path d="m30,50a19.986,19.986 0 0 1 -5.962,-0.9a23.279,23.279 0 0 0 1.8,-3.331c0.405,-1.04 1.405,-4.634 1.9,-6.454a5.534,5.534 0 0 0 5.469,2.219a10.662,10.662 0 0 0 9.1,-8.627c1.038,-5.564 -0.294,-10.917 -5.359,-13.7a14.936,14.936 0 0 0 -15.574,1.167c-3.424,2.53 -5.69,8.632 -3.332,13.389c1.979,3.994 3.465,3.78 3.716,3.376a12.506,12.506 0 0 0 0.627,-2.353c0.079,-0.392 -0.9,-1.655 -1.255,-3.294c-1.677,-7.791 5.172,-10 6.178,-10.206a10.807,10.807 0 0 1 7.469,1.108a7.8,7.8 0 0 1 3.522,7a11.8,11.8 0 0 1 -1.953,6.494c-1.82,2.447 -5.255,3.216 -6.745,1.412a4.455,4.455 0 0 1 -0.822,-1.514c0.408,-1.371 0.907,-3.1 1.292,-4.6c0.785,-3.059 1.177,-6.431 -2.509,-5.8s-3.53,5.725 -2.51,7.843c-1.569,5.961 -2.745,10.667 -2.667,11.608c0.053,0.634 0.106,2.55 0.135,3.732a20.009,20.009 0 1 1 7.48,1.431z" style="fill-rule: evenodd" />
 
</svg>
