<svg id="share" xmlns="http://www.w3.org/2000/svg" width="22" height="22" viewBox="0 0 22 22">
  <path d="M322.706,94.2a2.8,2.8,0,1,1-2.952,2.8A2.877,2.877,0,0,1,322.706,94.2Zm11.3-6.657a2.8,2.8,0,1,1-2.967,2.8A2.885,2.885,0,0,1,334.007,87.548Zm0,13.285a2.814,2.814,0,1,1-2.967,2.81A2.891,2.891,0,0,1,334.007,100.833Z" transform="translate(-317.36 -86)" style="fill-rule: evenodd"/>
  <path d="M331.455,91.651l-6.2,4.039m0,2.615,6.2,4.04" transform="translate(-317.36 -86)" style="fill-rule: evenodd" />
</svg>
