<svg xmlns="http://www.w3.org/2000/svg" width="60" height="60" viewBox="0 0 60 60">
  <path d="m51.26601,17.745a14.378,14.378 0 0 1 -2.2,2.488a18.051,18.051 0 0 1 -2.137,1.68s1,13.665 -11.487,20.778c-14.091,8.025 -26.712,-0.124 -26.712,-0.124a21.7,21.7 0 0 0 7.546,-0.746a18.658,18.658 0 0 0 5.209,-2.675a10.662,10.662 0 0 1 -5.165,-1.887a9.1,9.1 0 0 1 -2.849,-3.712a9.166,9.166 0 0 0 1.829,0.1a6.88,6.88 0 0 0 1.844,-0.349a9.189,9.189 0 0 1 -5.209,-3.3a6.466,6.466 0 0 1 -1.536,-4.666a7.549,7.549 0 0 0 1.736,0.622a8.859,8.859 0 0 0 2,0.311a9.351,9.351 0 0 1 -3.406,-4.852a7.692,7.692 0 0 1 0.868,-5.972s2.127,3.254 8.415,6.221a21.557,21.557 0 0 0 9.483,2.177s-0.918,-5.787 3.739,-8.647c6.078,-3.733 11.153,1.182 11.153,1.182a23.744,23.744 0 0 0 3.473,-0.933a21.323,21.323 0 0 0 2.27,-1.12a6.358,6.358 0 0 1 -1.6,2.862a26.24,26.24 0 0 1 -2.137,1.8a20.454,20.454 0 0 0 2.805,-0.56c1.267,-0.367 2.068,-0.678 2.068,-0.678z" style="fill-rule: evenodd" />
</svg>
